<?xml version="1.0" encoding="UTF-8"?>
<svg xmlns="http://www.w3.org/2000/svg" viewBox="0 0 383.04 276.42">
  <defs>
    <style>
      .cls-1, .cls-2, .cls-3, .cls-4 {
        fill: #fff;
      }

      .cls-5, .cls-6, .cls-4 {
        opacity: .2;
      }

      .cls-5, .cls-2, .cls-7, .cls-8, .cls-9, .cls-10 {
        stroke-width: 1.1px;
      }

      .cls-5, .cls-2, .cls-7, .cls-9, .cls-11 {
        stroke-linecap: round;
        stroke-linejoin: round;
      }

      .cls-5, .cls-7 {
        stroke: #fff;
      }

      .cls-5, .cls-7, .cls-8, .cls-9, .cls-11 {
        fill: none;
      }

      .cls-2, .cls-8, .cls-9, .cls-11, .cls-10 {
        stroke: #263238;
      }

      .cls-3 {
        opacity: .5;
      }

      .cls-8, .cls-10 {
        stroke-miterlimit: 10;
      }

      .cls-12, .cls-10 {
        fill: #92e3a9;
      }

      .cls-11 {
        stroke-width: 2.21px;
      }

      .cls-13 {
        fill: #263238;
      }
    </style>
  </defs>
  <g id="Shadow">
    <g>
      <ellipse class="cls-12" cx="191.52" cy="249.65" rx="191.52" ry="26.76"/>
      <ellipse class="cls-3" cx="191.52" cy="249.65" rx="191.52" ry="26.76"/>
    </g>
  </g>
  <g id="Window">
    <g>
      <path class="cls-2" d="m369.2,22.76v180.06c0,12.26-9.94,22.19-22.19,22.19H30.31c-12.26,0-22.19-9.94-22.19-22.19V22.76c0-.53.02-1.05.07-1.57C8.98,9.66,18.59.55,30.31.55h316.69c11.73,0,21.33,9.11,22.13,20.64.04.52.07,1.04.07,1.57Z"/>
      <path class="cls-13" d="m18.92,29.51h340.61v166.33c0,11.48-9.32,20.8-20.8,20.8H39.72c-11.48,0-20.8-9.32-20.8-20.8V29.51h0Z"/>
      <path class="cls-4" d="m359.54,29.51v166.34c0,11.48-9.22,20.79-20.57,20.79H39.49c-11.35,0-20.57-9.31-20.57-20.79V29.51h340.62Z"/>
      <path class="cls-10" d="m369.13,21.19H8.19C8.98,9.66,18.59.55,30.31.55h316.69c11.73,0,21.33,9.11,22.13,20.64Z"/>
      <path class="cls-13" d="m52.54,10.87c0,2.17-1.76,3.93-3.93,3.93s-3.93-1.76-3.93-3.93,1.76-3.93,3.93-3.93,3.93,1.76,3.93,3.93Z"/>
      <path class="cls-13" d="m69.16,10.87c0,2.17-1.76,3.93-3.93,3.93s-3.93-1.76-3.93-3.93,1.76-3.93,3.93-3.93,3.93,1.76,3.93,3.93Z"/>
      <circle class="cls-13" cx="81.85" cy="10.87" r="3.93"/>
      <path class="cls-8" d="m359.53,29.51v166.33c0,11.48-9.31,20.8-20.8,20.8H39.72c-10.1,0-18.52-7.21-20.4-16.77h-.01v-.06c-.25-1.29-.39-2.63-.39-3.98V29.51h340.61Z"/>
      <path class="cls-13" d="m359.21,55.24c-1.46-.82-3.01-1.46-4.62-1.91l-1.86-8.35h-7.94l-1.85,8.35c-1.62.44-3.18,1.09-4.63,1.91l-7.17-4.59-5.61,5.61,4.51,7.17c-.83,1.47-1.47,3.02-1.91,4.63l-8.35,1.85v7.94l8.35,1.86c.44,1.63,1.08,3.2,1.91,4.67l-4.59,7.21,5.61,5.61,7.21-4.59c1.46.83,3.01,1.47,4.63,1.92l1.85,8.34h7.94l1.86-8.34c1.61-.45,3.17-1.1,4.62-1.92l.36.23v-37.84l-.33.21Zm-10.44,28.96c-5.67,0-10.26-4.59-10.26-10.26s4.59-10.26,10.26-10.26,10.26,4.6,10.26,10.26-4.59,10.26-10.26,10.26Z"/>
      <path class="cls-13" d="m216.11,63.29v-16.75l-17.61-3.9c-.96-3.4-2.31-6.68-4.03-9.77l2.13-3.35h-83.1l2.05,3.27c-1.73,3.08-3.08,6.35-4.02,9.76l-17.61,3.92v16.74l17.61,3.93c.94,3.43,2.28,6.74,4.02,9.84l-9.67,15.21,11.85,11.84,15.2-9.67c3.09,1.73,6.36,3.09,9.77,4.05l3.9,17.58h16.75l3.94-17.58c3.4-.96,6.66-2.33,9.74-4.05l15.21,9.67,11.84-11.84-9.61-15.21c1.71-3.09,3.07-6.35,4.03-9.75l17.61-3.93Zm-61,13.26c-11.95,0-21.63-9.69-21.63-21.63s9.69-21.63,21.63-21.63,21.63,9.69,21.63,21.63-9.69,21.63-21.63,21.63Z"/>
      <path class="cls-13" d="m105.04,178.27l.71-13.28-13.77-3.88c-.64-2.72-1.59-5.38-2.82-7.9l8.32-11.68-8.91-9.89-12.47,7.05c-2.38-1.49-4.92-2.71-7.59-3.63l-2.38-14.12-13.28-.71-3.84,13.81c-2.74.61-5.38,1.56-7.9,2.8l-11.67-8.32-9.91,8.91,7.06,12.48c-1.52,2.37-2.74,4.91-3.64,7.58l-4.03.66v17.99l2.92.83c.62,2.75,1.57,5.41,2.82,7.92l-5.75,8.04.39,6.89v.04h.01s5.92,6.59,5.92,6.59l12.49-7.05c2.38,1.53,4.94,2.77,7.61,3.67l2.27,13.56h0s.11.57.11.57l13.28.71.35-1.27h0s3.49-12.54,3.49-12.54c2.76-.62,5.41-1.56,7.94-2.8l11.65,8.31,9.91-8.9-7.04-12.49c1.5-2.37,2.71-4.91,3.6-7.57l14.14-2.38Zm-35.28-20.75c-6.35-7.06-17.23-7.63-24.29-1.28-7.06,6.35-7.63,17.23-1.28,24.29,6.35,7.06,17.23,7.62,24.29,1.27s7.63-17.22,1.28-24.28Z"/>
      <path class="cls-13" d="m211.26,158.42c.52-2.06.78-4.17.81-6.29l9.55-5.02-2.64-9.69-10.78.5c-1.09-1.82-2.39-3.5-3.87-5l3.19-10.31-8.7-4.99-7.28,7.95c-2.05-.5-4.15-.77-6.27-.8l-5.04-9.56-9.67,2.63.51,10.79c-1.82,1.09-3.5,2.39-5.01,3.87l-10.31-3.18-4.99,8.69,7.99,7.26c-.52,2.06-.78,4.16-.79,6.27l-9.57,5.04,2.64,9.69,10.79-.51c1.08,1.82,2.37,3.5,3.86,5.01l-3.21,10.26,8.7,4.99,7.24-7.88c2.06.52,4.16.78,6.28.79l5.03,9.56,9.67-2.63-.42-9.22-.07-1.58c1.84-1.08,3.53-2.38,5.06-3.87l10.31,3.2,4.26-7.44.73-1.26-7.98-7.27Zm-22.87,5.88c-6.91,1.88-14.03-2.2-15.91-9.1-1.88-6.91,2.2-14.03,9.1-15.91,6.91-1.88,14.03,2.2,15.91,9.1,1.88,6.91-2.2,14.03-9.1,15.91Z"/>
      <path class="cls-13" d="m321.98,175.46l2.21-13.29-13.46-5.42c-.31-2.84-.96-5.61-1.93-8.3l9.69-10.79-7.84-10.96-13.36,5.67c-2.22-1.78-4.63-3.28-7.21-4.48l-.78-14.49-13.3-2.2-5.45,13.4c-2.82.33-5.59.98-8.26,1.94l-10.82-9.69-10.95,7.84,5.68,13.35c-1.57,1.96-2.92,4.06-4.05,6.29-.15.31-.31.62-.45.93l-14.48.81-2.21,13.28,2.18.88,11.27,4.54c.31,2.81.95,5.59,1.93,8.26l-9.69,10.82,7.84,10.95,13.36-5.69c2.21,1.8,4.63,3.31,7.2,4.51l.75,14.43,13.29,2.2,5.44-13.3c2.83-.31,5.61-.96,8.28-1.94l10.8,9.7,10.96-7.85-5.68-13.36c1.81-2.22,3.34-4.66,4.56-7.25l14.48-.79Zm-37.3-.6c-7.82,5.59-18.7,3.79-24.29-4.03-5.6-7.81-3.79-18.69,4.02-24.28,7.82-5.6,18.7-3.79,24.29,4.02,5.6,7.82,3.79,18.7-4.02,24.29Z"/>
    </g>
  </g>
  <g id="Character">
    <g>
      <path class="cls-12" d="m193.02,237.91s-29,8.32-33.05,9.75c-3.68,1.3-13.67,4.8-21.16,3.72-.74-.11-1.46-.26-2.14-.46-7.59-2.26-11-4.37-11.99-9.14-1-4.79,2.78-8.28,6.42-10.53,3.64-2.25,23.39-4.6,23.39-4.6l4.77,1.4h.01l33.75,9.87Z"/>
      <path class="cls-1" d="m138.82,251.38c-.74-.11-1.46-.26-2.14-.46-7.59-2.26-11-4.37-11.99-9.14-1-4.79,2.78-8.28,6.42-10.53,3.64-2.25,23.39-4.6,23.39-4.6l4.77,1.4c-4.31,1.99-20.4,3.09-23.9,5.11-3.51,2.02-5.21,5.82-3.13,10.96,1.1,2.74,4.06,5.38,6.6,7.27Z"/>
      <path class="cls-9" d="m188.66,239.09s-21.78,5.64-30.42,9.25c-8.64,3.61-25.11,5.19-30.98-2.26-5.87-7.45-.68-13.86,5.19-15.28,5.87-1.42,17.74-3.68,24.22-2.78"/>
      <path class="cls-9" d="m139.25,250.98s-11.08-6.08-7.4-14.59c2.72-6.28,17.5-4.92,24.82-8.36"/>
      <path class="cls-12" d="m281.35,252.72c-.3,2.97-1.35,5.81-4.35,7.58-2,1.18-4.84,1.89-8.91,1.84-10.17-.13-29.29-7.4-29.29-7.4l-17.9-9.89,9.31-14.74,2.55-4.04,6.59,1.48s5.45,3.09,10.93,5.55c5.48,2.46,18.79,2.98,23.47,6.77,4.69,3.78,8.11,7.91,7.6,12.85Z"/>
      <path class="cls-1" d="m281.35,252.72c-.3,2.97-1.35,5.81-4.35,7.58.56-2.31,1.03-5.49-.51-8.94-1.99-4.49-8.5-8.45-17.07-9.11-8.55-.66-15.11-4.67-18.54-6.45-2.68-1.39-8.33-4.42-10.68-5.69l2.55-4.04,6.59,1.48s5.45,3.09,10.93,5.55c5.48,2.46,18.79,2.98,23.47,6.77,4.69,3.78,8.11,7.91,7.6,12.85Z"/>
      <path class="cls-9" d="m224.87,247.62c12.74,7.3,27.32,12.56,41.9,14.31,3.26.39,7.05.45,9.23-2,1.22-1.36,1.66-3.29,1.5-5.11-.39-4.6-4.26-8.24-8.5-10.06-4.24-1.82-8.92-2.26-13.42-3.27-4.48-1-8.83-2.6-12.9-4.72-3.24-1.69-6.37-3.74-9.94-4.49-3.57-.76-7.82.16-9.73,3.27"/>
      <path class="cls-9" d="m274.8,261.18c3.29-1.69,6-4.8,6.55-8.46.65-4.33-1.82-8.69-5.29-11.35-3.48-2.66-7.82-3.92-12.11-4.81-4.29-.89-8.67-1.49-12.76-3.08-6.27-2.45-12.46-7.29-18.97-5.57"/>
      <path class="cls-12" d="m245.07,92.7l-30.29-11.53-.37-.14s.11-.81.2-1.97c.19-2.42.29-6.35-.85-7.69-1.69-1.97-6.48-.32-11.14-2.46-4.67-2.14-13.3,1.69-13.3,1.69,0,0-6.23-1.15-8.98,3.35-1.4,3.63-.92,9.03-.92,9.03,0,0-.2.08-.57.21-3.61,1.35-23.24,8.74-27.4,11.7-4.59,3.25-9.66,36.62-11.3,46.42-1.63,9.81-4.53,18.63-3.06,22.01,1.47,3.36,22.57,19.61,34.7,23.81,12.13,4.2,55.19,2.97,55.19,2.97,0,0,.71-.19,1.95-.58,7.28-2.34,33.12-11.97,46.82-34.68,0,0-13.27-43.53-30.68-62.13Zm-81.84,56.13c-2.23,1.58-1.04,7.7-1.04,7.7l-3.79-3.34,9.52-23.41,4.06,17.97s-6.52-.49-8.75,1.08Zm76.16,14.87c-1.05.54,3.01-10.71,1.08-13.26-1.93-2.56-7.71-2.31-7.71-2.31l.5-3.08c.07-.34,3.43-17.59,3.43-17.59l1.14-1.36s11.78,20.2,13.89,27.31c0,0-12.84,10.28-12.32,10.28Z"/>
      <path class="cls-1" d="m187.88,19.7l-15.63,16.6s-2.16,1.91-1.3,6.72c.86,4.82,2.85,8.95,4.36,9.27,1.51.32,3.62.32,3.62.32,0,0,3.35,7.26,5.72,10.11,0,0,.83,11.21.39,14.32,0,0,5.62,4.91,10.91,5.53,5.29.62,13.46-7.48,13.46-7.48l2.03-9.92s4.8-7.28,5.12-9.22c.33-1.94,2.52-1.44,3.6-2.4s3.57-5.23,3.98-9.27c.41-4.04.44-8.68-4.25-7.32-4.07-1.09-1.52-9.69-1.52-9.69l-7.15-6.31-23.34-1.27Z"/>
      <path class="cls-3" d="m214.78,81.18c-.24.64-.51,1.25-.81,1.81-2.58,4.86-13.82,14.13-13.82,14.13l-3.4-10.45-1.86,10.45c-3.75-1.63-15.19-11.55-15.19-11.55,0,0-.39-.93-.86-2.37.38-.13.57-.21.57-.21,0,0-.49-5.41.92-9.03,2.75-4.5,8.98-3.35,8.98-3.35,0,0,8.64-3.83,13.3-1.69,4.67,2.14,9.45.49,11.14,2.46,1.69,1.97.65,9.66.65,9.66l.37.14Z"/>
      <path class="cls-6" d="m245.07,92.7l-30.29-11.53-.37-.14s.11-.81.2-1.97l-.63,3.93-4.48,6.09s7.57,2.73,13.98,6.16c4.45,2.38,7.01,7.23,6.42,12.24l-5.58,47.75-2.28,27.11,6.91,7.17c7.28-2.34,33.12-11.97,46.82-34.68,0,0-13.27-43.53-30.68-62.13Zm-5.68,71c-1.05.54,3.01-10.71,1.08-13.26-1.93-2.56-7.71-2.31-7.71-2.31l.5-3.08c.07-.34,3.43-17.59,3.43-17.59l1.14-1.36s11.78,20.2,13.89,27.31c0,0-12.84,10.28-12.32,10.28Z"/>
      <path class="cls-6" d="m174.03,150.44l-4.71-15.74s-8.44-28.8-14.24-35.91l1.52,20.26s-4.97,24.2-9.57,31.39c-4.6,7.18-5.59,8.98,0,8.98s19.19,10.84,19.19,10.84l-1.05-9.05,8.85-10.78Zm-11.84,6.09l-3.79-3.34,9.52-23.41,4.06,17.97s-6.52-.49-8.75,1.08c-2.23,1.58-1.04,7.7-1.04,7.7Z"/>
      <path class="cls-9" d="m184.64,62.72s.87,8.49,0,12.37"/>
      <path class="cls-9" d="m210.27,73.95s-.05-4.14.94-8.11"/>
      <path class="cls-9" d="m212.54,26.02s5.14,6.45,4.87,11.32c-.26,4.87-.66,10.67-.53,16.33.13,5.66-9.09,17.51-13.83,18.57-4.74,1.05-8.82,1.32-11.85-1.71-3.03-3.03-6.06-7.24-10.01-12.64-3.95-5.4-3.03-17.25-3.03-17.25"/>
      <path class="cls-9" d="m200.18,45.16c-.31,1.77-.45,3.57-.4,5.37.04,1.5.26,3.13,1.32,4.2.57.58,1.39,1.04,1.5,1.85.1.71-.45,1.36-1.05,1.75-.61.39-1.31.63-1.85,1.1"/>
      <path class="cls-9" d="m192.03,60.04s.59,3.83,5.73,4.63"/>
      <path class="cls-13" d="m192.56,48.07c0,1.11-.48,2-1.07,2s-1.07-.9-1.07-2,.48-2,1.07-2,1.07.9,1.07,2Z"/>
      <path class="cls-13" d="m207.87,48.55c0,1.11-.48,2-1.07,2s-1.07-.9-1.07-2,.48-2,1.07-2,1.07.9,1.07,2Z"/>
      <path class="cls-11" d="m204.78,43.71s4.98-4.98,9.19.57"/>
      <path class="cls-11" d="m194.25,43.8s-3.16-3.54-8.14,0"/>
      <path class="cls-13" d="m185.03,67.39s3.05,8.4,9.86,10.79c6.81,2.38,15.85-9.99,15.85-9.99l-.47-1.61s-5.92,7.7-12.51,6.38-13.11-10.24-13.11-10.24l.39,4.66Z"/>
      <path class="cls-9" d="m178.92,52.29s-4.06,1.43-5.14-1.73c-1.08-3.16-4.78-11.49-1.54-14.26,3.24-2.78,5.84,3.66,5.84,3.66"/>
      <path class="cls-9" d="m216.88,54.01s3.77.76,4.85-2.4c1.08-3.16,4.78-11.49,1.54-14.26-3.24-2.78-5.84,3.66-5.84,3.66"/>
      <path class="cls-13" d="m178.08,48.07c1.12-.05,2.97-1.15,3.56-2.1.59-.96.84-2.08,1.04-3.19.37-2.12.56-4.28.56-6.43,0-.84-.02-1.7.23-2.51.26-.84.79-1.56,1.36-2.23,1.42-1.66,3.12-3.06,4.47-4.78s2.34-3.89,1.97-6.04c0,0,9.2,8.41,22.47,5.81,7.14-1.4,14-7.67,13.17-15.55-.3-2.8-2.36-4.82-5.03-5.49-3.53-.88-6.7,1-9.9,2.21-5.83,2.2-11.54-1.58-17.43-2.21-5.04-.54-11.23.08-13.85,5.09,0,0-9.05,1.06-13.02,8.5s3.57,17.73,3.57,17.73c0,0,3.03-3.67,6.93,3.76l-.09,7.43Z"/>
      <path class="cls-13" d="m213.11,24.12s-2.34,12.2,3.77,18.11c0,0,1.34-3.67,2.69-4.56,0,0,3.4-6.45-1.07-13.54-4.47-7.1-5.39,0-5.39,0Z"/>
      <path class="cls-5" d="m224.3,10.24c-.9,3.36-3.75,5.96-6.97,7.28-8.48,3.45-16.72-.38-25.21-1.13-6.94-.61-14.59,5.64-15.07,12.76"/>
      <path class="cls-5" d="m171.79,27.27c.13-5.61,3.83-10.98,9.03-13.08"/>
      <path class="cls-9" d="m182.69,73.95s5.59,6.16,13.21,9.03c0,0,10.15-2.94,15.32-10.02"/>
      <circle class="cls-9" cx="189.31" cy="48.07" r="8.98" transform="translate(-2.81 83.29) rotate(-24.64)"/>
      <circle class="cls-9" cx="209.38" cy="48.07" r="8.98" transform="translate(-4.3 25.89) rotate(-7)"/>
      <path class="cls-9" d="m184.64,70.6s-2.73.55-4.32,3.35c-1.59,2.8-.63,11.61-.63,11.61,0,0,8.21,8.12,15.2,11.55l2.06-11.59,3.2,11.59s10.82-7.65,13.82-14.12c0,0,.98-7.54,0-10.02s-3.23-2.36-3.23-2.36"/>
      <path class="cls-9" d="m171.79,148.14s-3.2-21.5-7.47-30.27"/>
      <path class="cls-9" d="m155.08,98.79s4.06,5.68,6.64,11.11"/>
      <path class="cls-9" d="m239.39,114.84c1.13-4.28,2.33-8.04,3.53-10.49"/>
      <path class="cls-9" d="m232.76,148.14s2.31-14.74,5.07-26.88"/>
      <path class="cls-9" d="m236.68,127.46c2.2-2.94,5.4-5.13,8.94-6.11"/>
      <path class="cls-9" d="m214.4,81.03s18.64,7.44,30.67,11.67c0,0,14.8,13.92,30.67,62.13,0,0-14.55,24.46-42.2,32.3"/>
      <path class="cls-9" d="m238.34,164.58l13.36-11.16s7.07-5.37,14.42-1.7"/>
      <path class="cls-9" d="m237.82,126.11s11.05,16.28,13.88,27.31"/>
      <path class="cls-9" d="m162.31,157.15l-3.91-3.73s-5.81-1.01-12.38,3.39"/>
      <path class="cls-9" d="m158.4,153.42s4.86-15.95,9.65-24.19"/>
      <path class="cls-9" d="m179.41,82.99s-26.81,10.06-29.44,12.99c-2.63,2.93-12.62,59.2-12.88,65.64-.24,5.76,20.65,18.69,30.96,24.14"/>
      <rect class="cls-2" x="239.39" y="42.97" width="43.61" height="30.99" rx="6.53" ry="6.53"/>
      <polyline class="cls-9" points="253.46 52.29 245.07 57.55 252.86 64.45"/>
      <polyline class="cls-9" points="268.74 64.96 276.28 58.53 267.58 52.83"/>
      <line class="cls-9" x1="257.54" y1="68.91" x2="263.73" y2="49.49"/>
      <path class="cls-13" d="m199.46,102c0,.97-.79,1.76-1.76,1.76s-1.76-.79-1.76-1.76.79-1.76,1.76-1.76,1.76.79,1.76,1.76Z"/>
      <g>
        <path class="cls-13" d="m230.48,196.22h-61.02c-.79,0-1.43-.64-1.43-1.43h0c0-.79.64-1.43,1.43-1.43h61.02c.79,0,1.43.64,1.43,1.43h0c0,.79-.64,1.43-1.43,1.43Z"/>
        <path class="cls-2" d="m232.62,191.47l8.18-38.4c.54-2.54-1.4-4.94-4-4.94h-71.29c-2.57,0-4.51,2.35-4.01,4.88l7.33,37.12c.37,1.88,2,3.25,3.92,3.29l55.78,1.28c1.96.04,3.68-1.31,4.09-3.23Z"/>
        <path class="cls-13" d="m206.6,170.27c0,3.14-2.55,5.69-5.69,5.69s-5.69-2.55-5.69-5.69,2.55-5.69,5.69-5.69,5.69,2.55,5.69,5.69Z"/>
        <line class="cls-9" x1="217.79" y1="151.78" x2="226.26" y2="151.78"/>
        <line class="cls-9" x1="177.34" y1="151.78" x2="209.49" y2="151.78"/>
      </g>
      <path class="cls-13" d="m232.76,232.21l-6.5,17.06s-16.57-4.18-37.81-8.53c-22.2-4.55-45.39-10.44-57.42-31.54-1.47-2.57-2.44-5.61-1.76-8.49,1.74-7.29,11.22-9.27,17.47-10,3.92-.46,7.88-.61,11.83-.67,2.01-.03,8.65-1.08,10.26.1,0,0,4.17,3.07,7.72,4.57,3.55,1.51,55.37-1.35,55.37-1.35,0,0,1.54-3.25,1.63-6.22,8.15-4.14,27.01-7.65,34.98-6.1,12.53,2.44,19.84,9.75,18.45,17.41-1.39,7.66-29.05,28.2-54.21,33.77Z"/>
      <path class="cls-7" d="m232.76,232.21s-15.76-4.18-28.64-12.88c-12.88-8.7-22.94-18.8-40.89-16.71"/>
      <path class="cls-7" d="m201.15,217.28c8.14-2.34,14.11-7.6,20.64-12.66,6.92-5.35,14.23-10.54,22.09-14.52"/>
      <line class="cls-9" x1="198.29" y1="49.49" x2="200.68" y2="49.49"/>
    </g>
  </g>
</svg>